# xmcd
#
# Track frame offsets:
#	180
#	14820
#	35207
#	53803
#	63420
#	80338
#	98981
#	122305
#	139629
#	166508
#	169559
#
# Disc length: 2484 seconds
#
# Revision: 1
# Processed by: cddbd v1.4PL0 Copyright (c) Steve Scherf et al.
# Submitted via: audiograbber 1.82.02
#
DISCID=8709b20b
DTITLE=Salome Bey - Christmas Blue
DYEAR=1900
DGENRE=
TTITLE0=Christmas is coming
TTITLE1=Joy to the World
TTITLE2=Why Can't the Christmas Spirit be Always?
TTITLE3=O Come all ye Faithful
TTITLE4=Christmas Blue
TTITLE5=Christmastime, Christmastime
TTITLE6=Silent Night
TTITLE7=What Child is this?
TTITLE8=O Holy Night
TTITLE9=Is it time we celebrate what Chistmas is really about? (acapella)
TTITLE10=Is it time we celebrate what Chistmas is really about? 
EXTD=
EXTT0=
EXTT1=
EXTT2=
EXTT3=
EXTT4=
EXTT5=
EXTT6=
EXTT7=
EXTT8=
EXTT9=
EXTT10=
PLAYORDER=
